<svg xmlns="http://www.w3.org/2000/svg" width="32" height="32" viewBox="0 0 24 24" fill="none" stroke="#333" stroke-width="2" stroke-linecap="round" stroke-linejoin="round">
  <rect x="0" y="0" width="24" height="24" rx="4" fill="#f0f0f0" stroke="none" />
  <circle cx="13.5" cy="6.5" r=".5" fill="#333" stroke="#333"/>
  <circle cx="17.5" cy="10.5" r=".5" fill="#333" stroke="#333"/>
  <circle cx="8.5" cy="7.5" r=".5" fill="#333" stroke="#333"/>
  <circle cx="6.5" cy="12.5" r=".5" fill="#333" stroke="#333"/>
  <path d="M12 2C6.5 2 2 6.5 2 12s4.5 10 10 10c.926 0 1.648-.746 1.648-1.688 0-.437-.18-.835-.437-1.125-.29-.289-.438-.652-.438-1.125a1.64 1.64 0 0 1 1.688-1.688h1.906c3.15 0 5.625-2.553 5.625-5.625C22 6.5 17.5 2 12 2Z" stroke="#333" />
</svg>
